<svg width="1440" height="1920" viewBox="0 0 1440 1920" fill="none" xmlns="http://www.w3.org/2000/svg">
<path d="M268.122 965.491L263.312 981.921L263.467 981.945L238.769 1066.12L133.122 1047.6L128.297 1063.96L128.467 1064.05L103.769 1148.23L-1.89286 1129.64L-6.70325 1146.07L-6.54808 1146.09L-36.0811 1246.91L-18.852 1249.92L10.696 1149.17L98.9588 1164.66L98.9188 1164.8L116.148 1167.82L145.696 1067.06L233.959 1082.55L233.919 1082.7L251.148 1085.71L280.696 984.958L385.652 1003.41L390.533 986.955L268.122 965.491Z" fill="white"/>
<path d="M231.43 906.095L226.62 922.525L226.775 922.549L202.077 1006.72L96.4303 988.201L91.6049 1004.57L91.7751 1004.65L67.0775 1088.83L-38.5846 1070.24L-43.395 1086.67L-43.2398 1086.7L-72.7729 1187.51L-55.5438 1190.53L-26.0108 1089.71L62.2671 1105.26L62.227 1105.41L79.4561 1108.42L109.004 1007.67L197.267 1023.15L197.227 1023.3L214.456 1026.31L244.004 925.562L349.031 943.989L353.841 927.559L231.43 906.095Z" fill="#FF5991"/>
<path d="M194.739 846.699L189.928 863.129L190.083 863.153L165.386 947.328L59.7388 928.804L54.9284 945.235L55.0836 945.259L30.3859 1029.43L-75.2762 1010.85L-80.0866 1027.28L-79.9314 1027.3L-109.464 1128.12L-92.2354 1131.13L-62.7023 1030.31L25.5755 1045.86L25.5355 1046.01L42.7646 1049.02L72.3126 948.272L160.575 963.758L160.535 963.906L177.765 966.919L207.313 866.166L312.339 884.593L317.149 868.163L194.739 846.699Z" fill="white"/>
<g clip-path="url(#clip0)">
<path d="M1379.05 1545.45L1380.22 1561.5L1380.37 1561.49L1386.32 1643.73L1287.88 1650.87L1289.02 1666.86L1289.2 1666.9L1295.15 1749.14L1196.68 1756.22L1197.85 1772.27L1197.99 1772.26L1205.16 1870.75L1221.21 1869.58L1214.07 1771.14L1296.32 1765.2L1296.33 1765.34L1312.38 1764.17L1305.25 1665.73L1387.49 1659.78L1387.5 1659.93L1403.55 1658.76L1396.42 1560.32L1494.22 1553.27L1493.11 1537.19L1379.05 1545.45Z" fill="#CDC8CA"/>
<path d="M1331.1 1503.97L1332.27 1520.02L1332.41 1520.01L1338.36 1602.25L1239.93 1609.39L1241.07 1625.38L1241.24 1625.42L1247.19 1707.66L1148.72 1714.74L1149.89 1730.79L1150.04 1730.78L1157.2 1829.27L1173.26 1828.1L1166.09 1729.61L1248.36 1723.71L1248.38 1723.86L1264.43 1722.69L1257.29 1624.25L1339.53 1618.3L1339.55 1618.45L1355.6 1617.28L1348.47 1518.84L1446.33 1511.76L1445.16 1495.71L1331.1 1503.97Z" fill="#CDC8CA"/>
<path d="M1283.15 1462.49L1284.32 1478.54L1284.46 1478.53L1290.41 1560.77L1191.98 1567.91L1193.15 1583.96L1193.29 1583.94L1199.24 1666.18L1100.77 1673.26L1101.94 1689.31L1102.08 1689.3L1109.25 1787.79L1125.3 1786.62L1118.14 1688.13L1200.41 1682.23L1200.42 1682.38L1216.47 1681.21L1209.34 1582.77L1291.58 1576.82L1291.6 1576.97L1307.65 1575.8L1300.51 1477.36L1398.37 1470.28L1397.2 1454.23L1283.15 1462.49Z" fill="#CDC8CA"/>
</g>
<g clip-path="url(#clip1)">
<path d="M1458.35 1012.47C1505.34 1042.67 1519.17 1105.16 1489.23 1151.75C1459.27 1198.37 1396.67 1211.7 1349.71 1181.53L1353.17 1176.15C1397.16 1204.42 1455.76 1191.91 1483.81 1148.26C1511.85 1104.62 1498.88 1046.12 1454.89 1017.85L1458.35 1012.47Z" fill="#63CAF3"/>
<path d="M1450.61 1024.52C1490.91 1050.42 1502.76 1103.99 1477.08 1143.94C1451.41 1183.9 1397.7 1195.39 1357.43 1169.51L1360.89 1164.13C1398.19 1188.11 1447.86 1177.51 1471.64 1140.5C1495.42 1103.48 1484.39 1053.88 1447.13 1029.93L1450.61 1024.52Z" fill="#63CAF3"/>
<path d="M1441.85 1038.15C1474.56 1059.17 1484.2 1102.66 1463.35 1135.12C1442.49 1167.57 1398.92 1176.87 1366.21 1155.85L1369.67 1150.47C1399.38 1169.56 1438.95 1161.09 1457.87 1131.65C1476.81 1102.17 1468.02 1062.67 1438.35 1043.6L1441.85 1038.15Z" fill="#63CAF3"/>
<path d="M1329.12 1168.35C1282.16 1138.17 1268.3 1075.65 1298.26 1029.03C1328.2 982.443 1390.83 969.076 1437.78 999.251L1434.32 1004.63C1390.33 976.361 1331.71 988.904 1303.68 1032.51C1275.64 1076.16 1288.61 1134.66 1332.6 1162.93L1329.12 1168.35Z" fill="#63CAF3"/>
<path d="M1336.86 1156.3C1296.56 1130.4 1284.71 1076.82 1310.38 1036.87C1336.06 996.919 1389.77 985.424 1430.04 1011.3L1426.58 1016.68C1389.28 992.708 1339.61 1003.31 1315.83 1040.32C1292.05 1077.33 1303.04 1126.91 1340.34 1150.88L1336.86 1156.3Z" fill="#63CAF3"/>
<path d="M1345.64 1142.63C1312.93 1121.61 1303.29 1078.12 1324.14 1045.66C1345 1013.21 1388.57 1003.91 1421.28 1024.93L1417.82 1030.31C1388.11 1011.21 1348.51 1019.67 1329.59 1049.11C1310.64 1078.59 1319.43 1118.09 1349.15 1137.18L1345.64 1142.63Z" fill="#63CAF3"/>
</g>
<path d="M1287.54 699.377C1325.1 664.17 1368.98 633.737 1422.47 625.253C1481.14 615.825 1539.43 623.517 1597.84 619.988C1699.34 613.932 1770.89 556.228 1825.85 483.332C1838.24 466.867 1808.59 456.285 1796.3 472.63C1766.93 511.64 1733.01 548.491 1684.6 570.818C1630.3 595.817 1570.95 592.498 1514.72 592.12C1467.59 591.795 1416.37 591.797 1370.27 609.495C1330.01 624.931 1292.95 654.289 1263.02 682.311C1247.52 696.727 1272.05 713.889 1287.54 699.377Z" fill="#FF5991"/>
<path d="M1305.06 749.939C1342.62 714.731 1386.5 684.297 1439.99 675.812C1498.66 666.384 1556.95 674.076 1615.36 670.547C1716.86 664.49 1788.42 606.785 1843.38 533.887C1855.77 517.421 1826.11 506.839 1813.83 523.185C1784.45 562.195 1750.54 599.047 1702.13 621.375C1647.82 646.375 1588.48 643.056 1532.25 642.679C1485.11 642.354 1433.89 642.355 1387.8 660.054C1347.53 675.49 1310.47 704.85 1280.54 732.873C1265.05 747.386 1289.58 764.548 1305.06 749.939Z" fill="#FF5991"/>
<path d="M1322.6 800.598C1360.16 765.391 1404.04 734.958 1457.53 726.474C1516.2 717.046 1574.49 724.739 1632.9 721.21C1734.4 715.153 1805.95 657.45 1860.92 584.554C1873.3 568.088 1843.65 557.506 1831.36 573.852C1801.99 612.861 1768.07 649.712 1719.66 672.039C1665.36 697.038 1606.02 693.72 1549.79 693.342C1502.65 693.017 1451.43 693.018 1405.34 710.716C1365.07 726.152 1328.01 755.511 1298.08 783.533C1282.58 797.949 1307.11 815.111 1322.6 800.598Z" fill="#FF5991"/>
<path d="M1234.43 545.822C1271.99 510.616 1315.87 480.183 1369.36 471.699C1428.03 462.271 1486.32 469.964 1544.73 466.434C1646.23 460.378 1717.78 402.675 1772.75 329.78C1785.13 313.315 1755.48 302.733 1743.19 319.078C1713.82 358.087 1679.9 394.938 1631.49 417.265C1577.19 442.263 1517.85 438.945 1461.62 438.567C1414.48 438.242 1363.26 438.243 1317.17 455.941C1276.9 471.377 1239.84 500.735 1209.91 528.757C1194.3 543.196 1218.83 560.358 1234.43 545.822Z" fill="#FF5991"/>
<path d="M1251.97 596.491C1289.54 561.286 1333.42 530.855 1386.9 522.372C1445.57 512.945 1503.86 520.638 1562.29 517.206C1663.79 511.151 1735.34 453.451 1790.3 380.56C1802.69 364.095 1773.03 353.514 1760.75 369.858C1731.37 408.865 1697.46 445.714 1649.05 468.039C1594.75 493.036 1535.4 489.717 1479.17 489.339C1432.04 489.013 1380.82 489.014 1334.72 506.711C1294.46 522.146 1257.4 551.502 1227.47 579.522C1211.84 593.864 1236.37 611.025 1251.97 596.491Z" fill="#FF5991"/>
<path d="M1269.49 647.055C1307.06 611.849 1350.94 581.416 1404.43 572.933C1463.09 563.506 1521.39 571.198 1579.81 567.766C1681.31 561.71 1752.86 504.008 1807.82 431.115C1820.21 414.65 1790.56 404.068 1778.27 420.413C1748.9 459.421 1714.98 496.271 1666.57 518.597C1612.27 543.595 1552.92 540.277 1496.69 539.898C1449.56 539.573 1398.34 539.574 1352.25 557.272C1311.98 572.707 1274.92 602.065 1244.99 630.086C1229.49 644.501 1253.91 661.686 1269.49 647.055Z" fill="#FF5991"/>
<path d="M54.4413 313.717L71.4287 322.432L144.65 198.982L139.348 170.567L54.4413 313.717Z" fill="white"/>
<path d="M152.122 235.393L146.744 206.995L76.4196 325.699L93.4168 334.419L152.122 235.393Z" fill="white"/>
<path d="M32.4953 301.805L49.4759 310.516L137.254 162.54L131.953 134.139L32.4953 301.805Z" fill="white"/>
<path d="M10.5168 289.82L27.4921 298.528L129.823 126.033L124.555 97.7116L10.5168 289.82Z" fill="white"/>
<path d="M-16.0065 274.668L115.105 53.5495L112.653 40.3009L97.3993 46.1566L-32.9864 265.906L-16.0065 274.668Z" fill="white"/>
<path d="M98.365 337.594L114.921 346.119L159.373 271.15L154.16 243.494L98.365 337.594Z" fill="white"/>
<path d="M-95.9619 230.098L-79.0356 238.778L19.0951 73.4724L-9.46749 84.3989L-95.9619 230.098Z" fill="white"/>
<path d="M-116.926 218.181L-100.002 226.86L-16.419 86.0618L-45.0511 97.0219L-116.926 218.181Z" fill="white"/>
<path d="M-74.9971 242.017L-58.0376 250.767L54.6519 60.7796L26.0443 71.8128L-74.9971 242.017Z" fill="white"/>
<path d="M-54.0032 254.004L-37.0737 262.686L90.1653 48.187L61.5971 59.1167L-54.0032 254.004Z" fill="white"/>
<path d="M-11.4308 277.904L5.54081 286.61L122.428 89.5929L117.055 61.2458L-11.4308 277.904Z" fill="white"/>
<path d="M72.7054 114.43L-151.545 204.98L110.406 338.61L72.7054 114.43Z" fill="#FF5991"/>
<path d="M1243.16 -47.259C1303.03 -30.0132 1375.17 -8.80387 1414.99 42.214C1448.57 85.2231 1440.43 139.538 1428.31 182.536C1424.85 194.896 1446.75 202.167 1450.22 189.807C1463.78 141.647 1468.98 87.3697 1437.31 38.3024C1398.56 -21.7042 1313.76 -47.6737 1248.21 -66.5511C1233.98 -70.6377 1228.88 -51.3605 1243.16 -47.259Z" fill="#03CEA4"/>
<path d="M1247.93 -7.92169C1294.74 5.49509 1351.98 21.997 1382.37 62.3652C1403.98 91.0626 1403.16 128.038 1395.75 157.474C1392.65 169.883 1414.48 177.162 1417.59 164.707C1426.16 130.441 1424.89 92.6246 1404.33 58.2854C1374.9 9.18382 1305.4 -12.1028 1252.92 -27.1427C1238.79 -31.193 1233.7 -12.0018 1247.93 -7.92169Z" fill="#03CEA4"/>
<path d="M1255.91 35.3866C1287.56 44.4453 1324.7 55.3224 1346.23 81.7981C1360.31 99.0945 1360.3 121.057 1355.87 139.176C1352.83 151.572 1374.62 158.832 1377.67 146.39C1383.56 122.272 1381.35 96.6627 1365.17 73.3203C1342.79 41.0631 1297.11 26.5747 1260.9 16.2092C1246.79 12.1699 1241.7 31.3176 1255.91 35.3866Z" fill="#03CEA4"/>
<g clip-path="url(#clip2)">
<path d="M6.50623 524.278L-2.36823 529.06L2.41198 537.931L11.2864 533.149L6.50623 524.278Z" fill="white"/>
<path d="M24.2551 514.714L15.3807 519.496L20.1609 528.367L29.0353 523.584L24.2551 514.714Z" fill="white"/>
<path d="M42.0344 505.133L33.1599 509.915L37.9401 518.786L46.8146 514.004L42.0344 505.133Z" fill="white"/>
<path d="M59.7832 495.568L50.9088 500.351L55.689 509.221L64.5634 504.439L59.7832 495.568Z" fill="white"/>
<path d="M77.5322 486.004L68.6577 490.786L73.4379 499.657L82.3124 494.875L77.5322 486.004Z" fill="white"/>
<path d="M-2.66554 549.832L-11.54 554.615L-6.75978 563.485L2.11466 558.703L-2.66554 549.832Z" fill="white"/>
<path d="M15.1139 540.251L6.23944 545.034L11.0196 553.904L19.8941 549.122L15.1139 540.251Z" fill="white"/>
<path d="M32.8628 530.687L23.9883 535.469L28.7685 544.34L37.643 539.558L32.8628 530.687Z" fill="white"/>
<path d="M50.642 521.106L41.7676 525.888L46.5478 534.759L55.4222 529.977L50.642 521.106Z" fill="white"/>
<path d="M68.3909 511.542L59.5165 516.324L64.2967 525.195L73.1711 520.412L68.3909 511.542Z" fill="white"/>
<path d="M86.1398 501.977L77.2654 506.76L82.0456 515.63L90.92 510.848L86.1398 501.977Z" fill="white"/>
<path d="M5.94207 565.806L-2.93237 570.588L1.84783 579.459L10.7223 574.676L5.94207 565.806Z" fill="white"/>
<path d="M23.7215 556.225L14.847 561.007L19.6272 569.878L28.5017 565.096L23.7215 556.225Z" fill="white"/>
<path d="M41.4704 546.66L32.5959 551.443L37.3761 560.313L46.2506 555.531L41.4704 546.66Z" fill="white"/>
<path d="M59.2496 537.08L50.3752 541.862L55.1554 550.733L64.0298 545.95L59.2496 537.08Z" fill="white"/>
<path d="M76.9985 527.515L68.1241 532.297L72.9043 541.168L81.7787 536.386L76.9985 527.515Z" fill="white"/>
<path d="M94.7474 517.951L85.873 522.733L90.6532 531.604L99.5276 526.821L94.7474 517.951Z" fill="white"/>
<path d="M-3.19918 591.344L-12.0736 596.126L-7.29341 604.996L1.58102 600.214L-3.19918 591.344Z" fill="white"/>
<path d="M14.5497 581.779L5.67529 586.561L10.4555 595.432L19.3299 590.65L14.5497 581.779Z" fill="white"/>
<path d="M32.3292 572.198L23.4547 576.98L28.2349 585.851L37.1094 581.069L32.3292 572.198Z" fill="white"/>
<path d="M50.0781 562.634L41.2036 567.416L45.9838 576.287L54.8583 571.505L50.0781 562.634Z" fill="white"/>
<path d="M67.8573 553.053L58.9828 557.835L63.763 566.706L72.6375 561.924L67.8573 553.053Z" fill="white"/>
<path d="M85.6062 543.489L76.7318 548.271L81.512 557.141L90.3864 552.359L85.6062 543.489Z" fill="white"/>
<path d="M103.355 533.924L94.4807 538.706L99.2609 547.577L108.135 542.795L103.355 533.924Z" fill="white"/>
<path d="M5.42491 607.347L-3.44952 612.13L1.33068 621L10.2051 616.218L5.42491 607.347Z" fill="white"/>
<path d="M23.1738 597.783L14.2994 602.565L19.0796 611.436L27.954 606.654L23.1738 597.783Z" fill="white"/>
<path d="M40.9532 588.202L32.0788 592.984L36.859 601.855L45.7334 597.073L40.9532 588.202Z" fill="white"/>
<path d="M58.7021 578.638L49.8277 583.42L54.6079 592.291L63.4823 587.508L58.7021 578.638Z" fill="white"/>
<path d="M76.4814 569.057L67.6069 573.839L72.3871 582.71L81.2616 577.928L76.4814 569.057Z" fill="white"/>
<path d="M94.2303 559.492L85.3558 564.275L90.136 573.145L99.0105 568.363L94.2303 559.492Z" fill="white"/>
<path d="M111.979 549.928L103.105 554.71L107.885 563.581L116.759 558.799L111.979 549.928Z" fill="white"/>
<path d="M-3.71632 632.885L-12.5908 637.667L-7.81055 646.538L1.06388 641.756L-3.71632 632.885Z" fill="white"/>
<path d="M14.0326 623.321L5.15814 628.103L9.93835 636.974L18.8128 632.192L14.0326 623.321Z" fill="white"/>
<path d="M31.7815 613.756L22.907 618.539L27.6872 627.409L36.5617 622.627L31.7815 613.756Z" fill="white"/>
<path d="M49.5609 604.176L40.6865 608.958L45.4667 617.828L54.3411 613.046L49.5609 604.176Z" fill="white"/>
<path d="M67.3098 594.611L58.4354 599.393L63.2156 608.264L72.09 603.482L67.3098 594.611Z" fill="white"/>
<path d="M85.0891 585.03L76.2146 589.812L80.9948 598.683L89.8693 593.901L85.0891 585.03Z" fill="white"/>
<path d="M102.838 575.466L93.9635 580.248L98.7437 589.119L107.618 584.337L102.838 575.466Z" fill="white"/>
<path d="M120.587 565.901L111.712 570.684L116.493 579.554L125.367 574.772L120.587 565.901Z" fill="white"/>
<path d="M4.89128 648.859L-3.98315 653.641L0.797047 662.512L9.67149 657.729L4.89128 648.859Z" fill="white"/>
<path d="M22.6402 639.294L13.7657 644.076L18.5459 652.947L27.4204 648.165L22.6402 639.294Z" fill="white"/>
<path d="M40.3891 629.73L31.5146 634.512L36.2948 643.383L45.1693 638.6L40.3891 629.73Z" fill="white"/>
<path d="M58.1685 620.149L49.2941 624.931L54.0743 633.802L62.9487 629.02L58.1685 620.149Z" fill="white"/>
<path d="M75.9174 610.584L67.043 615.367L71.8232 624.237L80.6976 619.455L75.9174 610.584Z" fill="white"/>
<path d="M93.6967 601.004L84.8222 605.786L89.6024 614.657L98.4769 609.874L93.6967 601.004Z" fill="white"/>
<path d="M111.446 591.439L102.571 596.221L107.351 605.092L116.226 600.31L111.446 591.439Z" fill="white"/>
<path d="M129.194 581.875L120.32 586.657L125.1 595.528L133.975 590.745L129.194 581.875Z" fill="white"/>
<path d="M-4.28047 674.413L-13.1549 679.195L-8.37471 688.066L0.499729 683.284L-4.28047 674.413Z" fill="white"/>
<path d="M13.499 664.832L4.62451 669.614L9.40471 678.485L18.2791 673.703L13.499 664.832Z" fill="white"/>
<path d="M31.2478 655.268L22.3734 660.05L27.1536 668.921L36.028 664.138L31.2478 655.268Z" fill="white"/>
<path d="M48.9968 645.703L40.1223 650.485L44.9025 659.356L53.777 654.574L48.9968 645.703Z" fill="white"/>
<path d="M66.7762 636.122L57.9017 640.905L62.6819 649.775L71.5564 644.993L66.7762 636.122Z" fill="white"/>
<path d="M84.5251 626.558L75.6506 631.34L80.4308 640.211L89.3053 635.429L84.5251 626.558Z" fill="white"/>
<path d="M102.304 616.977L93.4299 621.759L98.2101 630.63L107.085 625.848L102.304 616.977Z" fill="white"/>
<path d="M120.053 607.413L111.179 612.195L115.959 621.066L124.833 616.283L120.053 607.413Z" fill="white"/>
<path d="M137.802 597.848L128.928 602.63L133.708 611.501L142.582 606.719L137.802 597.848Z" fill="white"/>
<path d="M4.3272 690.386L-4.54724 695.168L0.232956 704.039L9.10739 699.257L4.3272 690.386Z" fill="white"/>
<path d="M22.1066 680.805L13.2322 685.588L18.0124 694.458L26.8868 689.676L22.1066 680.805Z" fill="white"/>
<path d="M39.8555 671.241L30.9811 676.023L35.7613 684.894L44.6357 680.112L39.8555 671.241Z" fill="white"/>
<path d="M57.6044 661.677L48.73 666.459L53.5102 675.329L62.3846 670.547L57.6044 661.677Z" fill="white"/>
<path d="M75.3839 652.096L66.5094 656.878L71.2896 665.749L80.164 660.966L75.3839 652.096Z" fill="white"/>
<path d="M93.1327 642.531L84.2583 647.313L89.0385 656.184L97.9129 651.402L93.1327 642.531Z" fill="white"/>
<path d="M110.912 632.95L102.038 637.733L106.818 646.603L115.692 641.821L110.912 632.95Z" fill="white"/>
<path d="M128.661 623.386L119.786 628.168L124.567 637.039L133.441 632.257L128.661 623.386Z" fill="white"/>
<path d="M146.41 613.822L137.535 618.604L142.316 627.474L151.19 622.692L146.41 613.822Z" fill="white"/>
<path d="M12.9348 706.359L4.06036 711.142L8.84057 720.012L17.715 715.23L12.9348 706.359Z" fill="white"/>
<path d="M30.7142 696.779L21.8398 701.561L26.62 710.432L35.4944 705.649L30.7142 696.779Z" fill="white"/>
<path d="M48.4631 687.214L39.5887 691.996L44.3689 700.867L53.2433 696.085L48.4631 687.214Z" fill="white"/>
<path d="M66.212 677.65L57.3376 682.432L62.1178 691.303L70.9922 686.52L66.212 677.65Z" fill="white"/>
<path d="M83.9915 668.069L75.117 672.851L79.8972 681.722L88.7717 676.94L83.9915 668.069Z" fill="white"/>
<path d="M101.74 658.504L92.8659 663.287L97.6461 672.157L106.521 667.375L101.74 658.504Z" fill="white"/>
<path d="M119.52 648.924L110.645 653.706L115.425 662.577L124.3 657.794L119.52 648.924Z" fill="white"/>
<path d="M137.268 639.359L128.394 644.141L133.174 653.012L142.049 648.23L137.268 639.359Z" fill="white"/>
<path d="M155.017 629.795L146.143 634.577L150.923 643.448L159.798 638.665L155.017 629.795Z" fill="white"/>
<path d="M3.79375 731.897L-5.08069 736.679L-0.300484 745.55L8.57395 740.768L3.79375 731.897Z" fill="white"/>
<path d="M21.5425 722.333L12.668 727.115L17.4482 735.986L26.3227 731.203L21.5425 722.333Z" fill="white"/>
<path d="M39.3219 712.752L30.4474 717.534L35.2277 726.405L44.1021 721.623L39.3219 712.752Z" fill="white"/>
<path d="M57.0708 703.188L48.1964 707.97L52.9766 716.84L61.851 712.058L57.0708 703.188Z" fill="white"/>
<path d="M74.8197 693.623L65.9453 698.405L70.7255 707.276L79.5999 702.494L74.8197 693.623Z" fill="white"/>
<path d="M92.5991 684.042L83.7247 688.824L88.5049 697.695L97.3793 692.913L92.5991 684.042Z" fill="white"/>
<path d="M110.348 674.478L101.474 679.26L106.254 688.131L115.128 683.349L110.348 674.478Z" fill="white"/>
<path d="M128.127 664.897L119.253 669.679L124.033 678.55L132.907 673.768L128.127 664.897Z" fill="white"/>
<path d="M145.876 655.333L137.002 660.115L141.782 668.985L150.656 664.203L145.876 655.333Z" fill="white"/>
<path d="M163.625 645.768L154.751 650.55L159.531 659.421L168.405 654.639L163.625 645.768Z" fill="white"/>
<path d="M12.4178 747.901L3.5434 752.683L8.3236 761.554L17.198 756.772L12.4178 747.901Z" fill="white"/>
<path d="M30.1666 738.337L21.2921 743.119L26.0723 751.99L34.9468 747.207L30.1666 738.337Z" fill="white"/>
<path d="M47.946 728.756L39.0715 733.538L43.8517 742.409L52.7262 737.627L47.946 728.756Z" fill="white"/>
<path d="M65.6949 719.191L56.8204 723.974L61.6006 732.844L70.4751 728.062L65.6949 719.191Z" fill="white"/>
<path d="M83.4438 709.627L74.5693 714.409L79.3495 723.28L88.224 718.498L83.4438 709.627Z" fill="white"/>
<path d="M101.223 700.046L92.3488 704.828L97.129 713.699L106.003 708.917L101.223 700.046Z" fill="white"/>
<path d="M118.972 690.482L110.098 695.264L114.878 704.135L123.752 699.352L118.972 690.482Z" fill="white"/>
<path d="M136.751 680.901L127.877 685.683L132.657 694.554L141.532 689.772L136.751 680.901Z" fill="white"/>
<path d="M154.5 671.336L145.626 676.119L150.406 684.989L159.28 680.207L154.5 671.336Z" fill="white"/>
<path d="M172.249 661.772L163.375 666.554L168.155 675.425L177.029 670.643L172.249 661.772Z" fill="white"/>
</g>
<g clip-path="url(#clip3)">
<path d="M-81.5211 1599.14L-113.647 1708.38L117.851 1776.53L150.035 1667.32L70.005 1706.52L34.2569 1633.23L-33.8027 1676.01L-81.5211 1599.14Z" fill="#FF5991"/>
<path d="M-57.0436 1516.12L-89.1929 1625.26L142.306 1693.41L174.489 1584.21L94.5168 1623.44L58.7113 1550.12L-9.34825 1592.89L-57.0436 1516.12Z" fill="#FF5991"/>
<path d="M-32.5892 1433L-64.7729 1542.21L166.818 1610.33L198.909 1501.15L118.937 1540.38L83.1314 1467.06L15.1062 1509.78L-32.5892 1433Z" fill="#FF5991"/>
<path d="M-8.13497 1349.89L-40.3186 1459.09L191.237 1527.27L223.364 1418.04L143.391 1457.27L107.643 1383.98L39.5261 1426.72L-8.13497 1349.89Z" fill="#FF5991"/>
</g>
<defs>
<clipPath id="clip0">
<rect width="458.304" height="313.037" fill="white" transform="translate(1014.07 1769.68) rotate(-61.4771)"/>
</clipPath>
<clipPath id="clip1">
<rect width="227" height="201" fill="white" transform="translate(1352.58 944.5) rotate(32.7252)"/>
</clipPath>
<clipPath id="clip2">
<rect width="232" height="214" fill="white" transform="translate(-126.702 596.061) rotate(-28.3191)"/>
</clipPath>
<clipPath id="clip3">
<rect width="327.104" height="422.159" fill="white" transform="translate(22.8343 1298.11) rotate(30.882)"/>
</clipPath>
</defs>
</svg>
